# xmcd CD database file
#
# Track frame offsets:
#	150
#	19522
#	36700
#
# Disc length: 745 seconds
#
# Revision: 0
# Processed by: cddbd v1.5PL3 Copyright (c) Steve Scherf et al.
# Submitted via: CDex 1.51
#
DISCID=1f02e703
DTITLE=WANDS - 明日もし君が壊れても
DYEAR=1998
DGENRE=JPop
TTITLE0=明日もし君が壊れても
TTITLE1=Soldier
TTITLE2=明日もし君が壊れても (Original Karaoke)
EXTD=YEAR: 1998
EXTT0=
EXTT1=
EXTT2=
PLAYORDER=
